<?xml version="1.0" encoding="utf-8"?>
<!-- Generator: Adobe Illustrator 22.0.0, SVG Export Plug-In . SVG Version: 6.00 Build 0)  -->
<svg version="1.1" xmlns="http://www.w3.org/2000/svg" xmlns:xlink="http://www.w3.org/1999/xlink" x="0px" y="0px"
	 viewBox="0 0 1000 1000" style="enable-background:new 0 0 1000 1000;" xml:space="preserve">
<style type="text/css">
	.st0{fill:#5ABBD1;}
	.st1{fill:#CE5B5B;}
	.st2{fill:#7C7C7C;}
	.st3{stroke:#000000;stroke-miterlimit:10;}
</style>
<g id="color_x5F_font">
	<path class="st0" d="M260.5,438.5c0,0,0.5653076-0.243866,1.608429-0.6113892
		C270.9729004,434.7653809,314.3426514,422.711731,338.5,475.5c0,0,29,41,56,37l2,9c0,0-28,9-57-28c0,0,14,64,33,73c0,0-44-37-51-83
		c0,0,0-16-6-24c0,0-20.4407349,25.0863647-10.273407,51.0780334c0.3806763,0.9731445,0.8042603,1.9475403,1.273407,2.9219666
		c13,27-6,20-6,20s11-4-6-26c0,0-10-25,9-55C303.5,452.5,292.5,435.5,260.5,438.5z"/>
	<path class="st1" d="M181.7355804,507.4925537c0,0-0.1736755,0.5906677-0.4122925,1.6705627
		c-2.0278015,9.1772156-8.7456665,53.6867371,46.5775452,71.2798767c0,0,44.2074738,23.8264771,43.5035248,51.1120605
		l9.1758423,0.8964233c0,0,5.5462341-28.8831787-34.6906128-53.1936035c0,0,65.2236938,6.1539307,76.4563599,23.9254761
		c0,0-42.0516663-39.2002563-88.5606689-40.583374c0,0-15.8824615,1.935791-24.5496216-3.0521851
		c0,0,22.4289856-23.3257446,49.4598694-16.3778076c1.0120544,0.2601318,2.0305481,0.5627441,3.0545349,0.9105835
		c28.3745117,9.6378174,19.1271667-8.3757324,19.1271667-8.3757324s-2.63974,11.4031372-26.5349274-2.8102417
		c0,0-26.0262299-6.9017944-53.5070801,15.5882568C200.8352203,548.4828491,182.6292419,539.6204224,181.7355804,507.4925537z"/>
	<g>
		<path d="M522.4667969,560.0087891c0,0.8320313-0.2783203,1.4570313-0.8320313,1.8730469
			c-0.5566406,0.4160156-1.3193359,0.7285156-2.2890625,0.9365234c-0.9726563,0.2080078-2.3935547,0.3115234-4.2666016,0.3115234
			c-1.8046875,0-3.2431641-0.1035156-4.3183594-0.3115234c-1.0761719-0.2080078-1.8564453-0.5205078-2.3408203-0.9365234
			c-0.4863281-0.4160156-0.7285156-1.0410156-0.7285156-1.8730469v-9.3652344
			c-4.09375,4.3701172-8.6542969,7.7705078-13.6826172,10.1972656c-5.0302734,2.4277344-10.3530273,3.6416016-15.972168,3.6416016
			c-4.9257813,0-9.3823242-0.6416016-13.3706055-1.9248047c-3.9897461-1.2822266-7.3876953-3.1376953-10.1967773-5.5664063
			c-2.8095703-2.4277344-4.9946289-5.4111328-6.5551758-8.9482422c-1.5610352-3.5380859-2.3413086-7.5605469-2.3413086-12.0703125
			c0-5.2705078,1.074707-9.8496094,3.2255859-13.734375c2.1494141-3.8847656,5.2368164-7.109375,9.2607422-9.6777344
			c4.0219727-2.5644531,8.9482422-4.4902344,14.7753906-5.7744141c5.8266602-1.2822266,12.3818359-1.9248047,19.6655273-1.9248047
			h12.9023438v-7.2836914c0-3.605957-0.3818359-6.7973633-1.1445313-9.5727539
			c-0.7636719-2.7734375-1.9951172-5.0805664-3.6933594-6.9194336c-1.7011719-1.8369141-3.9023438-3.2255859-6.6079102-4.1621094
			c-2.7050781-0.9365234-6.034668-1.4047852-9.9887695-1.4047852c-4.2319336,0-8.0297852,0.5043945-11.3935547,1.5087891
			c-3.3657227,1.0063477-6.3129883,2.1171875-8.8442383,3.3295898c-2.5332031,1.2148438-4.6484375,2.3251953-6.347168,3.3300781
			c-1.7006836,1.0063477-2.9658203,1.5083008-3.7983398,1.5083008c-0.5556641,0-1.0400391-0.1381836-1.456543-0.4160156
			c-0.4160156-0.2763672-0.7802734-0.6923828-1.0922852-1.2485352c-0.3125-0.5541992-0.5385742-1.2651367-0.6767578-2.1333008
			c-0.1396484-0.8662109-0.2080078-1.8208008-0.2080078-2.8613281c0-1.7329102,0.1206055-3.1035156,0.3642578-4.1098633
			c0.2421875-1.0048828,0.8325195-1.9589844,1.769043-2.8613281c0.9365234-0.9008789,2.5493164-1.9594727,4.8383789-3.1738281
			c2.2890625-1.2128906,4.9243164-2.3232422,7.9077148-3.3295898c2.9819336-1.0048828,6.2431641-1.8369141,9.7807617-2.4970703
			c3.5380859-0.6586914,7.1098633-0.9887695,10.7172852-0.9887695c6.7280273,0,12.4501953,0.7641602,17.1689453,2.2895508
			c4.7158203,1.5263672,8.5322266,3.7636719,11.4453125,6.7109375c2.9140625,2.9492188,5.0283203,6.6074219,6.3476563,10.9775391
			c1.3164063,4.3701172,1.9765625,9.46875,1.9765625,15.2954102V560.0087891z M505.4023438,517.2441406H490.730957
			c-4.7177734,0-8.8100586,0.3994141-12.277832,1.1953125c-3.4697266,0.7988281-6.347168,1.9775391-8.6362305,3.5380859
			c-2.2890625,1.5615234-3.972168,3.4345703-5.046875,5.6191406c-1.0761719,2.1845703-1.612793,4.7001953-1.612793,7.5439453
			c0,4.8554688,1.5429688,8.7236328,4.6303711,11.6015625c3.0859375,2.8789063,7.4042969,4.3183594,12.9545898,4.3183594
			c4.5083008,0,8.6884766-1.1445313,12.5380859-3.4335938c3.8496094-2.2900391,7.8896484-5.7919922,12.1220703-10.5097656
			V517.2441406z"/>
		<path d="M600.7138672,553.0371094c0,2.0126953-0.1396484,3.6074219-0.4160156,4.7861328
			c-0.2783203,1.1806641-0.6943359,2.046875-1.2490234,2.6015625c-0.5556641,0.5556641-1.3886719,1.0761719-2.4970703,1.5605469
			c-1.1103516,0.4863281-2.3769531,0.8847656-3.7978516,1.1972656c-1.4228516,0.3115234-2.9316406,0.5722656-4.5263672,0.7802734
			c-1.5966797,0.2080078-3.1914063,0.3115234-4.7861328,0.3115234c-4.8564453,0-9.0185547-0.6416016-12.4863281-1.9248047
			c-3.4697266-1.2822266-6.3134766-3.2255859-8.5322266-5.8271484c-2.2207031-2.6005859-3.8339844-5.8945313-4.8388672-9.8847656
			c-1.0058594-3.9882813-1.5087891-8.6884766-1.5087891-14.0986328v-54.730957h-13.1103516
			c-1.0400391,0-1.8730469-0.5546875-2.4970703-1.6650391c-0.6240234-1.1088867-0.9365234-2.9135742-0.9365234-5.4106445
			c0-1.3168945,0.0859375-2.4272461,0.2597656-3.3295898c0.1728516-0.9008789,0.3984375-1.6469727,0.6767578-2.2373047
			c0.2763672-0.5883789,0.640625-1.0048828,1.0927734-1.2485352c0.4501953-0.2421875,0.9521484-0.3642578,1.5087891-0.3642578
			h13.0058594v-22.2670898c0-0.484375,0.1210938-0.9365234,0.3642578-1.3525391
			c0.2421875-0.4160156,0.6933594-0.7802734,1.3525391-1.0922852c0.6591797-0.3125,1.5429688-0.5366211,2.6533203-0.6767578
			c1.109375-0.1381836,2.4980469-0.2080078,4.1621094-0.2080078c1.7333984,0,3.15625,0.0698242,4.2666016,0.2080078
			c1.1083984,0.1401367,1.9765625,0.3642578,2.6015625,0.6767578c0.6240234,0.3120117,1.0742188,0.6762695,1.3525391,1.0922852
			c0.2763672,0.4160156,0.4160156,0.8681641,0.4160156,1.3525391v22.2670898h24.0361328
			c0.5537109,0,1.0400391,0.1220703,1.4560547,0.3642578c0.4169922,0.2436523,0.7802734,0.6601563,1.0927734,1.2485352
			c0.3125,0.590332,0.5371094,1.3364258,0.6767578,2.2373047c0.1376953,0.9023438,0.2080078,2.0126953,0.2080078,3.3295898
			c0,2.4970703-0.3125,4.3017578-0.9365234,5.4106445c-0.6240234,1.1103516-1.4570313,1.6650391-2.4970703,1.6650391h-24.0361328
			v52.2338867c0,6.4511719,0.953125,11.3251953,2.8613281,14.6191406c1.9072266,3.2949219,5.3232422,4.9423828,10.2490234,4.9423828
			c1.5947266,0,3.0175781-0.15625,4.2666016-0.46875c1.2480469-0.3115234,2.3574219-0.6396484,3.3291016-0.9882813
			c0.9707031-0.3457031,1.8027344-0.6757813,2.4970703-0.9882813c0.6933594-0.3125,1.3173828-0.4677734,1.8730469-0.4677734
			c0.3466797,0,0.6767578,0.0869141,0.9882813,0.2597656c0.3125,0.1738281,0.5546875,0.5039063,0.7285156,0.9882813
			c0.1728516,0.4863281,0.3291016,1.1445313,0.46875,1.9775391
			C600.6435547,550.7480469,600.7138672,551.7880859,600.7138672,553.0371094z"/>
		<path d="M708.40625,512.0410156c0,7.6308594-1.0058594,14.6552734-3.0175781,21.0703125
			c-2.0126953,6.4169922-5.0117188,11.9492188-9,16.5957031c-3.9902344,4.6484375-8.984375,8.2724609-14.9833984,10.8740234
			c-6.0009766,2.6015625-12.9541016,3.9013672-20.8623047,3.9013672c-7.7001953,0-14.4111328-1.1445313-20.1337891-3.4335938
			c-5.7236328-2.2890625-10.4931641-5.6181641-14.3076172-9.9882813c-3.8154297-4.3701172-6.6591797-9.6767578-8.5322266-15.9199219
			s-2.8095703-13.3183594-2.8095703-21.2265625c0-7.6308594,0.9892578-14.6538086,2.9658203-21.0708008
			c1.9765625-6.4155273,4.9589844-11.9477539,8.9482422-16.5961914c3.9882813-4.6464844,8.9648438-8.2543945,14.9316406-10.8212891
			c5.9648438-2.5654297,12.9365234-3.8500977,20.9140625-3.8500977c7.7001953,0,14.4111328,1.1445313,20.1337891,3.434082
			c5.7236328,2.2890625,10.4921875,5.6186523,14.3076172,9.9887695c3.8144531,4.3701172,6.6757813,9.6767578,8.5839844,15.9199219
			C707.4521484,497.1616211,708.40625,504.203125,708.40625,512.0410156z M690.6132813,513.1855469
			c0-5.0625-0.4726563-9.8496094-1.4169922-14.359375c-0.9462891-4.5083008-2.5039063-8.4624023-4.6728516-11.8618164
			c-2.1708984-3.3979492-5.1103516-6.0869141-8.8203125-8.0639648s-8.3291016-2.965332-13.8583984-2.965332
			c-5.109375,0-9.5029297,0.9023438-13.1767578,2.7050781c-3.6748047,1.8046875-6.7011719,4.3540039-9.0820313,7.6479492
			c-2.3798828,3.2954102-4.1474609,7.1972656-5.3017578,11.7060547c-1.1542969,4.5097656-1.7314453,9.4335938-1.7314453,14.7753906
			c0,5.1337891,0.4716797,9.9550781,1.4179688,14.4628906c0.9443359,4.5097656,2.5195313,8.4462891,4.7246094,11.8095703
			c2.2041016,3.3652344,5.1601563,6.0351563,8.8701172,8.0126953c3.7099609,1.9765625,8.3291016,2.9648438,13.8603516,2.9648438
			c5.0400391,0,9.4130859-0.9003906,13.1230469-2.7050781c3.7099609-1.8027344,6.7539063-4.3349609,9.1337891-7.5957031
			c2.3808594-3.2597656,4.1298828-7.1435547,5.25-11.6542969
			C690.0527344,523.5566406,690.6132813,518.5957031,690.6132813,513.1855469z"/>
		<path d="M872.6005859,559.9042969c0,0.5566406-0.140625,1.0244141-0.4169922,1.4052734
			c-0.2773438,0.3818359-0.7275391,0.7119141-1.3525391,0.9882813c-0.6240234,0.2763672-1.4921875,0.484375-2.6005859,0.6240234
			c-1.1113281,0.1386719-2.4980469,0.2080078-4.1621094,0.2080078c-1.7353516,0-3.1572266-0.0693359-4.2666016-0.2080078
			c-1.1103516-0.1396484-1.9951172-0.3476563-2.6533203-0.6240234c-0.6601563-0.2763672-1.1279297-0.6064453-1.4042969-0.9882813
			c-0.2783203-0.3808594-0.4160156-0.8486328-0.4160156-1.4052734v-56.9160156
			c0-3.9541016-0.3486328-7.5600586-1.0410156-10.8212891c-0.6943359-3.2597656-1.8046875-6.0693359-3.3300781-8.4282227
			c-1.5263672-2.3574219-3.46875-4.1621094-5.8261719-5.4106445c-2.359375-1.2485352-5.1347656-1.8730469-8.3242188-1.8730469
			c-3.9541016,0-7.9257813,1.5268555-11.9140625,4.5786133c-3.9902344,3.0532227-8.3759766,7.5273438-13.1621094,13.4223633
			v65.4482422c0,0.5566406-0.140625,1.0244141-0.4169922,1.4052734c-0.2773438,0.3818359-0.7460938,0.7119141-1.4042969,0.9882813
			c-0.6601563,0.2763672-1.5449219,0.484375-2.6533203,0.6240234c-1.1103516,0.1386719-2.4970703,0.2080078-4.1621094,0.2080078
			c-1.5966797,0-2.9658203-0.0693359-4.1103516-0.2080078c-1.1445313-0.1396484-2.046875-0.3476563-2.7050781-0.6240234
			c-0.6601563-0.2763672-1.1103516-0.6064453-1.3525391-0.9882813c-0.2441406-0.3808594-0.3642578-0.8486328-0.3642578-1.4052734
			v-56.9160156c0-3.9541016-0.3818359-7.5600586-1.1445313-10.8212891
			c-0.7646484-3.2597656-1.9091797-6.0693359-3.4335938-8.4282227c-1.5263672-2.3574219-3.4521484-4.1621094-5.7753906-5.4106445
			c-2.3242188-1.2485352-5.0820313-1.8730469-8.2714844-1.8730469c-3.9541016,0-7.9443359,1.5268555-11.9658203,4.5786133
			c-4.0244141,3.0532227-8.3945313,7.5273438-13.1103516,13.4223633v65.4482422c0,0.5566406-0.140625,1.0244141-0.4169922,1.4052734
			c-0.2773438,0.3818359-0.7285156,0.7119141-1.3525391,0.9882813s-1.4921875,0.484375-2.6015625,0.6240234
			c-1.1103516,0.1386719-2.5322266,0.2080078-4.265625,0.2080078c-1.6650391,0-3.0537109-0.0693359-4.1621094-0.2080078
			c-1.1103516-0.1396484-1.9951172-0.3476563-2.6533203-0.6240234c-0.6601563-0.2763672-1.1103516-0.6064453-1.3525391-0.9882813
			c-0.2441406-0.3808594-0.3642578-0.8486328-0.3642578-1.4052734v-93.6459961c0-0.5546875,0.1044922-1.0229492,0.3125-1.4047852
			c0.2080078-0.3803711,0.6240234-0.7285156,1.2480469-1.0405273s1.4208984-0.5205078,2.3935547-0.6245117
			c0.9707031-0.1040039,2.2529297-0.1557617,3.8496094-0.1557617c1.5253906,0,2.7919922,0.0517578,3.7978516,0.1557617
			c1.0048828,0.1040039,1.7851563,0.3125,2.3417969,0.6245117c0.5537109,0.3120117,0.9521484,0.6601563,1.1962891,1.0405273
			c0.2421875,0.3818359,0.3642578,0.8500977,0.3642578,1.4047852v12.3818359
			c5.2705078-5.8950195,10.3867188-10.2133789,15.3476563-12.9541016c4.9580078-2.7397461,9.9707031-4.1103516,15.0351563-4.1103516
			c3.8837891,0,7.3701172,0.4521484,10.4570313,1.3530273c3.0859375,0.9023438,5.8095703,2.168457,8.1679688,3.7978516
			c2.3574219,1.6303711,4.3701172,3.5732422,6.0351563,5.8266602c1.6650391,2.2548828,3.0517578,4.7700195,4.1621094,7.5439453
			c3.1210938-3.3979492,6.0869141-6.2773438,8.8964844-8.6362305c2.8095703-2.3574219,5.5146484-4.2661133,8.1162109-5.7231445
			c2.6005859-1.456543,5.1328125-2.5131836,7.5957031-3.1733398c2.4609375-0.6586914,4.9423828-0.9887695,7.4394531-0.9887695
			c6.0351563,0,11.0976563,1.0585938,15.1914063,3.1738281c4.0927734,2.1166992,7.4042969,4.9423828,9.9375,8.4799805
			c2.53125,3.5380859,4.3339844,7.6835938,5.4101563,12.434082c1.0751953,4.7524414,1.6132813,9.7646484,1.6132813,15.0356445
			V559.9042969z"/>
	</g>
	<g>
		<path class="st2" d="M691.0244141,606.9619141h-2.5898438v-25.0859375h2.5898438V606.9619141z M691.0566406,575.5644531
			h-2.5898438v-4.046875h2.5898438V575.5644531z"/>
		<path class="st2" d="M701.9003906,585.5986328c0.8417969-0.9921875,1.6669922-1.7802734,2.4765625-2.3632813
			c0.8085938-0.5820313,1.5966797-1.0244141,2.3623047-1.3271484c0.765625-0.3017578,1.4941406-0.4902344,2.1845703-0.5664063
			c0.6904297-0.0751953,1.3378906-0.1132813,1.9423828-0.1132813c5.1572266,0,7.7363281,3.0429688,7.7363281,9.1279297v16.6054688
			h-2.5898438v-16.3789063c0-1.1650391-0.1025391-2.1738281-0.3066406-3.0263672
			c-0.2060547-0.8525391-0.5400391-1.5537109-1.0039063-2.1035156c-0.4638672-0.5507813-1.0683594-0.9599609-1.8125-1.2304688
			c-0.7451172-0.2695313-1.65625-0.4042969-2.7353516-0.4042969c-1.4238281,0-2.8212891,0.4208984-4.1914063,1.2626953
			c-1.3710938,0.8408203-2.7246094,2.0283203-4.0625,3.5605469v18.3203125h-2.5898438v-25.0859375h2.5898438V585.5986328z"/>
		<path class="st2" d="M735.2724609,607.609375c-6.1494141,0-9.5058594-2.4707031-10.0664063-7.4121094h2.6220703
			c0.1943359,1.5107422,0.8896484,2.6914063,2.0878906,3.5439453c1.1972656,0.8525391,2.9716797,1.2783203,5.3242188,1.2783203
			c1.1435547,0,2.1474609-0.1240234,3.0107422-0.3720703c0.8623047-0.2480469,1.5800781-0.5830078,2.1523438-1.0029297
			c0.5712891-0.4208984,0.9980469-0.9228516,1.2783203-1.5058594c0.2802734-0.5820313,0.4208984-1.2080078,0.4208984-1.8769531
			s-0.1132813-1.2412109-0.3398438-1.7158203s-0.6367188-0.90625-1.2304688-1.2949219
			c-0.59375-0.3876953-1.4023438-0.7607422-2.4277344-1.1162109c-1.0244141-0.3564453-2.3359375-0.7392578-3.9326172-1.1494141
			c-1.359375-0.3447266-2.5683594-0.7011719-3.625-1.0683594c-1.0576172-0.3662109-1.9472656-0.8193359-2.6708984-1.359375
			c-0.7226563-0.5390625-1.2675781-1.1923828-1.6337891-1.9580078c-0.3671875-0.765625-0.5507813-1.7207031-0.5507813-2.8652344
			c0-0.9921875,0.2109375-1.8935547,0.6308594-2.7021484c0.4208984-0.8095703,1.0087891-1.4941406,1.7646484-2.0556641
			c0.7548828-0.5605469,1.671875-0.9921875,2.7509766-1.2949219c1.0791016-0.3017578,2.2763672-0.453125,3.5927734-0.453125
			c2.9785156,0,5.2382813,0.5019531,6.78125,1.5048828c1.5429688,1.0039063,2.4003906,2.5849609,2.5742188,4.7421875h-2.6220703
			c-0.1728516-1.2509766-0.7724609-2.1738281-1.796875-2.7675781c-1.0253906-0.5927734-2.5517578-0.8896484-4.5800781-0.8896484
			c-0.9501953,0-1.8232422,0.0859375-2.6220703,0.2587891s-1.4833984,0.4267578-2.0546875,0.7607422
			c-0.5722656,0.3349609-1.0205078,0.7558594-1.34375,1.2626953c-0.3242188,0.5068359-0.4853516,1.0839844-0.4853516,1.7314453
			c0,0.3671875,0.0644531,0.7441406,0.1943359,1.1328125c0.1289063,0.3886719,0.4580078,0.7880859,0.9873047,1.1972656
			c0.5283203,0.4101563,1.3212891,0.8261719,2.3789063,1.2460938c1.0566406,0.4208984,2.5029297,0.8583984,4.3369141,1.3115234
			c1.4453125,0.3671875,2.703125,0.75,3.7714844,1.1494141s1.9521484,0.8730469,2.6542969,1.4238281
			c0.7011719,0.5498047,1.2246094,1.1923828,1.5693359,1.9257813c0.3457031,0.734375,0.5185547,1.5976563,0.5185547,2.5898438
			c0,1.1005859-0.2216797,2.1308594-0.6640625,3.0908203c-0.4423828,0.9609375-1.0683594,1.7861328-1.8769531,2.4765625
			c-0.8095703,0.6904297-1.796875,1.2353516-2.9619141,1.6347656
			C738.0244141,607.4091797,736.7177734,607.609375,735.2724609,607.609375z"/>
		<path class="st2" d="M759.8408203,607.1884766c-0.3671875,0.0429688-0.734375,0.0751953-1.1005859,0.0966797
			c-0.3671875,0.0214844-0.734375,0.0332031-1.1005859,0.0332031c-1.1230469,0-2.0234375-0.1572266-2.703125-0.4697266
			s-1.1972656-0.7822266-1.5537109-1.4082031c-0.3564453-0.625-0.5878906-1.4082031-0.6962891-2.3466797
			s-0.1611328-2.0332031-0.1611328-3.2851563v-15.3427734h-3.2050781v-2.5898438h3.2050781v-6.5712891h2.5888672v6.5712891
			h4.1113281v2.5898438h-4.1113281v15.5693359c0,1.0351563,0.0751953,1.8613281,0.2265625,2.4755859
			c0.1513672,0.6152344,0.3779297,1.0908203,0.6796875,1.4248047c0.3027344,0.3349609,0.6748047,0.5498047,1.1171875,0.6474609
			c0.4414063,0.0966797,0.9433594,0.1455078,1.5048828,0.1455078c0.2373047,0,0.4423828,0,0.6152344,0
			c0.171875,0,0.3662109-0.0107422,0.5830078-0.0322266V607.1884766z"/>
		<path class="st2" d="M768.2890625,606.9619141h-2.5898438v-25.0859375h2.5898438V606.9619141z M768.3212891,575.5644531
			h-2.5898438v-4.046875h2.5898438V575.5644531z"/>
		<path class="st2" d="M784.8623047,607.1884766c-0.3671875,0.0429688-0.734375,0.0751953-1.1005859,0.0966797
			c-0.3671875,0.0214844-0.734375,0.0332031-1.1005859,0.0332031c-1.1230469,0-2.0234375-0.1572266-2.703125-0.4697266
			s-1.1972656-0.7822266-1.5537109-1.4082031c-0.3564453-0.625-0.5878906-1.4082031-0.6962891-2.3466797
			s-0.1611328-2.0332031-0.1611328-3.2851563v-15.3427734h-3.2050781v-2.5898438h3.2050781v-6.5712891h2.5888672v6.5712891
			h4.1113281v2.5898438h-4.1113281v15.5693359c0,1.0351563,0.0751953,1.8613281,0.2265625,2.4755859
			c0.1513672,0.6152344,0.3779297,1.0908203,0.6796875,1.4248047c0.3027344,0.3349609,0.6748047,0.5498047,1.1171875,0.6474609
			c0.4414063,0.0966797,0.9433594,0.1455078,1.5048828,0.1455078c0.2373047,0,0.4423828,0,0.6152344,0
			c0.171875,0,0.3662109-0.0107422,0.5830078-0.0322266V607.1884766z"/>
		<path class="st2" d="M807.1640625,603.5957031c-0.6259766,0.7558594-1.3330078,1.3867188-2.1201172,1.8935547
			c-0.7880859,0.5068359-1.5859375,0.9169922-2.3955078,1.2294922c-0.8085938,0.3125-1.6074219,0.5390625-2.3955078,0.6796875
			s-1.4941406,0.2109375-2.1201172,0.2109375c-5.1357422,0-7.703125-3.0537109-7.703125-9.1601563v-16.5732422h2.5888672v16.3466797
			c0,2.3515625,0.4375,4.0732422,1.3115234,5.1621094c0.8740234,1.0898438,2.3896484,1.6347656,4.5478516,1.6347656
			c1.5537109,0,3.0146484-0.4316406,4.3857422-1.2949219c1.3701172-0.8623047,2.6699219-2.0927734,3.9003906-3.6894531v-18.1591797
			h2.5898438v25.0859375h-2.5898438V603.5957031z"/>
		<path class="st2" d="M826.1328125,607.1884766c-0.3671875,0.0429688-0.734375,0.0751953-1.1005859,0.0966797
			c-0.3671875,0.0214844-0.734375,0.0332031-1.1005859,0.0332031c-1.1230469,0-2.0234375-0.1572266-2.703125-0.4697266
			s-1.1972656-0.7822266-1.5537109-1.4082031c-0.3564453-0.625-0.5878906-1.4082031-0.6962891-2.3466797
			s-0.1611328-2.0332031-0.1611328-3.2851563v-15.3427734h-3.2050781v-2.5898438h3.2050781v-6.5712891h2.5888672v6.5712891
			h4.1113281v2.5898438H821.40625v15.5693359c0,1.0351563,0.0751953,1.8613281,0.2265625,2.4755859
			c0.1513672,0.6152344,0.3779297,1.0908203,0.6796875,1.4248047c0.3027344,0.3349609,0.6748047,0.5498047,1.1171875,0.6474609
			c0.4414063,0.0966797,0.9433594,0.1455078,1.5048828,0.1455078c0.2373047,0,0.4423828,0,0.6152344,0
			c0.171875,0,0.3662109-0.0107422,0.5830078-0.0322266V607.1884766z"/>
		<path class="st2" d="M841.7988281,607.609375c-1.7480469,0-3.3339844-0.296875-4.7578125-0.890625
			c-1.4248047-0.5927734-2.6494141-1.4560547-3.6738281-2.5888672c-1.0253906-1.1328125-1.8183594-2.5195313-2.3798828-4.1591797
			c-0.5605469-1.640625-0.8408203-3.5068359-0.8408203-5.6005859c0-2.0273438,0.2695313-3.8564453,0.8085938-5.4863281
			c0.5390625-1.6289063,1.3056641-3.0097656,2.2988281-4.1435547c0.9921875-1.1328125,2.1679688-2.0009766,3.5283203-2.6054688
			c1.359375-0.6035156,2.8691406-0.90625,4.53125-0.90625c1.7041016,0,3.2470703,0.3027344,4.6289063,0.90625
			c1.3808594,0.6044922,2.5566406,1.4726563,3.5283203,2.6054688c0.9707031,1.1337891,1.7148438,2.5146484,2.2333984,4.1435547
			c0.5175781,1.6298828,0.7763672,3.46875,0.7763672,5.5185547v0.5830078h-19.7451172
			c0.1298828,1.7050781,0.4423828,3.1835938,0.9394531,4.4345703c0.4960938,1.2519531,1.1435547,2.2929688,1.9414063,3.1240234
			c0.7988281,0.8310547,1.7207031,1.4511719,2.7675781,1.8603516c1.046875,0.4111328,2.1855469,0.6152344,3.4150391,0.6152344
			c0.8632813,0,1.7265625-0.1015625,2.5898438-0.3076172c0.8623047-0.2041016,1.6455078-0.5117188,2.3466797-0.921875
			s1.2890625-0.9169922,1.7636719-1.5214844s0.7558594-1.2949219,0.8417969-2.0712891h2.5576172
			c-0.2382813,1.1865234-0.6591797,2.2382813-1.2626953,3.1552734c-0.6044922,0.9179688-1.3486328,1.6943359-2.2333984,2.3310547
			s-1.8886719,1.1162109-3.0107422,1.4404297C844.2695313,607.4472656,843.0722656,607.609375,841.7988281,607.609375z
			 M849.8583984,592.3955078c-0.4316406-2.8691406-1.4072266-5.0166016-2.9287109-6.4414063
			c-1.5214844-1.4238281-3.3935547-2.1357422-5.6162109-2.1357422c-1.1005859,0-2.1259766,0.1728516-3.0751953,0.5175781
			c-0.9501953,0.3457031-1.796875,0.8740234-2.5410156,1.5859375s-1.3701172,1.6083984-1.8769531,2.6865234
			c-0.5078125,1.0800781-0.8691406,2.3417969-1.0849609,3.7871094H849.8583984z"/>
		<path class="st2" d="M867.5644531,607.609375c-6.1494141,0-9.5058594-2.4707031-10.0664063-7.4121094h2.6220703
			c0.1943359,1.5107422,0.8896484,2.6914063,2.0878906,3.5439453c1.1972656,0.8525391,2.9716797,1.2783203,5.3242188,1.2783203
			c1.1435547,0,2.1474609-0.1240234,3.0107422-0.3720703c0.8623047-0.2480469,1.5800781-0.5830078,2.1523438-1.0029297
			c0.5712891-0.4208984,0.9980469-0.9228516,1.2783203-1.5058594c0.2802734-0.5820313,0.4208984-1.2080078,0.4208984-1.8769531
			s-0.1132813-1.2412109-0.3398438-1.7158203s-0.6367188-0.90625-1.2304688-1.2949219
			c-0.59375-0.3876953-1.4023438-0.7607422-2.4277344-1.1162109c-1.0244141-0.3564453-2.3359375-0.7392578-3.9326172-1.1494141
			c-1.359375-0.3447266-2.5683594-0.7011719-3.625-1.0683594c-1.0576172-0.3662109-1.9472656-0.8193359-2.6708984-1.359375
			c-0.7226563-0.5390625-1.2675781-1.1923828-1.6337891-1.9580078c-0.3671875-0.765625-0.5507813-1.7207031-0.5507813-2.8652344
			c0-0.9921875,0.2109375-1.8935547,0.6308594-2.7021484c0.4208984-0.8095703,1.0087891-1.4941406,1.7646484-2.0556641
			c0.7548828-0.5605469,1.671875-0.9921875,2.7509766-1.2949219c1.0791016-0.3017578,2.2763672-0.453125,3.5927734-0.453125
			c2.9785156,0,5.2382813,0.5019531,6.78125,1.5048828c1.5429688,1.0039063,2.4003906,2.5849609,2.5742188,4.7421875h-2.6220703
			c-0.1728516-1.2509766-0.7724609-2.1738281-1.796875-2.7675781c-1.0253906-0.5927734-2.5517578-0.8896484-4.5800781-0.8896484
			c-0.9501953,0-1.8232422,0.0859375-2.6220703,0.2587891s-1.4833984,0.4267578-2.0546875,0.7607422
			c-0.5722656,0.3349609-1.0205078,0.7558594-1.34375,1.2626953c-0.3242188,0.5068359-0.4853516,1.0839844-0.4853516,1.7314453
			c0,0.3671875,0.0644531,0.7441406,0.1943359,1.1328125c0.1289063,0.3886719,0.4580078,0.7880859,0.9873047,1.1972656
			c0.5283203,0.4101563,1.3212891,0.8261719,2.3789063,1.2460938c1.0566406,0.4208984,2.5029297,0.8583984,4.3369141,1.3115234
			c1.4453125,0.3671875,2.703125,0.75,3.7714844,1.1494141s1.9521484,0.8730469,2.6542969,1.4238281
			c0.7011719,0.5498047,1.2246094,1.1923828,1.5693359,1.9257813c0.3457031,0.734375,0.5185547,1.5976563,0.5185547,2.5898438
			c0,1.1005859-0.2216797,2.1308594-0.6640625,3.0908203c-0.4423828,0.9609375-1.0683594,1.7861328-1.8769531,2.4765625
			c-0.8095703,0.6904297-1.796875,1.2353516-2.9619141,1.6347656
			C870.3164063,607.4091797,869.0097656,607.609375,867.5644531,607.609375z"/>
	</g>
	<g>
		<path d="M891.5654297,485.0410156V466.237793h-7.0234375v-2.515625h16.8974609v2.515625h-7.0527344v18.8032227H891.5654297z"/>
		<path d="M904.2460938,485.0410156V463.722168h4.2470703l5.0458984,15.0952148
			c0.4658203,1.4052734,0.8046875,2.4570313,1.0175781,3.1552734c0.2421875-0.7753906,0.6210938-1.9150391,1.1347656-3.4179688
			l5.1044922-14.8325195h3.7949219v21.3188477h-2.71875v-17.8432617l-6.1953125,17.8432617h-2.5449219l-6.1660156-18.1489258
			v18.1489258H904.2460938z"/>
	</g>
</g>
<g id="heart">
</g>
<g id="Layer_3">
</g>
<g id="Layer_4">
	<path class="st3" d="M406.7131348,628.2196045c13.7826538-17.4432373,16.1386108-44.9702759,15.7285767-64.7407227
		C417.5629272,506.7808838,401.1952515,402.9311523,346.5,383.5c0,0-38-27-85-5c0,0-2-22,13-40c0,0-5-26-25-24l4-10c0,0,0-24-35-26
		c0,0-17,1-21,6c0,0-8-18-22-12l-18,10c0,0-14,1-3,17l6,13l-6,4l-11-6c0,0-8,0-16,8l-13,10
		c0,0-8.2185669,5.4790649,4.1411743,18.1824341c0.5742188,0.59021,1.1928711,1.1959839,1.8588257,1.8175659l17,19c0,0-7,20-5,33
		s-2,0-2,0l-19-14c0,0-9-3-15,5l-16,19c0,0-8,9-1,16l8,6l-16,4c0,0-12-1-7,15l7,23c0,0,6,12,18,9l31-8l10,15l1,7c0,0-4,90,40,116
		c0,0,78,48,158,42c0,0,24.9922485,0.9569092,49.7663574-8.7283936
		C391.3358765,641.664978,400.1997681,635.1881104,406.7131348,628.2196045z M381.2047729,625.1299438
		c-12.9801025,6.2319946-49.9417725,19.4180908-112.0457764,6.6858521C244.4963989,627.7966919,217.4547119,619.3733521,190.5,603.5
		c0,0-43-25-40-111c0,0-16-43-26-42l-35,11l-6-15l20-7c0,0,18-3,2-14l-7-7l9-12c0,0,46,32,44,38c0,0,27,30,24,44c0,0,15-48-24-68
		l4-56l-25-28l10-6l15,12c0,0,9,5,14,0l9-14c0,0,6-8,0-15l-6-20l7-4l11,17c0,0,5,4,11-2c0,0,12-14,29-6c0,0-63,119,6,161l12,1
		c0,0-53-48-8-130c0,0,5.625-2.25,8.859375,0c1.078125,0.75,1.890625,2,2.140625,4c1,8-48,79,29,78c0,0-23-11-17-18
		c0,0,96-31,123,82c0,0,20,75,18,96C404.5,572.5,406.1021729,616.7096558,381.2047729,625.1299438z"/>
</g>
</svg>
